<svg width="260" height="89" viewBox="0 0 260 89" fill="none" xmlns="http://www.w3.org/2000/svg">
<path d="M119.801 14.5493C122.473 3.7432 138.125 -3.21337 148.263 1.4995C158.4 6.21237 162.156 20.8294 155.53 29.7987C168.157 27.0491 181.674 38.999 180.402 51.7903C179.13 64.5816 163.527 73.6719 151.686 68.5246C153.428 72.979 151.692 78.2473 148.351 81.6788C145.01 85.1104 140.343 86.9691 135.664 88.0525C129.226 89.5428 121.975 89.5978 116.555 85.8363C111.135 82.0803 108.889 73.5344 113.413 68.7501C110.499 74.1394 102.12 74.6893 97.4351 70.7243C92.7561 66.7538 91.5172 59.8467 92.8225 53.869C94.1277 47.8913 97.5457 42.612 100.953 37.5252C94.4983 40.0219 86.6944 34.6216 85.7763 27.797C84.8527 20.9724 89.8746 14.1973 96.3954 11.8876C102.922 9.56693 113.994 10.7988 119.801 14.5493Z" fill="#FCBEDD"/>
<path d="M22.582 69.8554L22.5211 61.1446C21.5367 63.2728 20.0544 65.0216 18.0799 66.3909C16.1055 67.7602 13.9872 68.4476 11.7251 68.4476C9.50178 68.4476 7.51074 67.7547 5.74091 66.3634C3.97107 64.9721 2.57181 63.0584 1.5431 60.6277C0.51438 58.197 0 55.4419 0 52.3788C0 48.9417 0.647102 45.9556 1.94129 43.4205C3.23549 40.8853 5.03851 38.9331 7.3393 37.5637C9.64009 36.1944 12.2948 35.507 15.298 35.507C16.9849 35.507 18.362 35.76 19.4295 36.2714C20.4969 36.7828 21.4648 37.6517 22.3276 38.8781V27.0381C22.3276 25.5643 21.863 24.382 20.9394 23.4801C20.0157 22.5782 18.81 22.1273 17.3278 22.1273V21.5114H23.6328C25.6903 21.5114 27.2499 21.3079 28.3229 20.8955C29.3903 20.4885 30.1536 19.9166 30.6071 19.1797H31.2265V62.0025C31.2265 63.4763 31.6801 64.6641 32.5816 65.5605C33.4886 66.4624 34.6998 66.9078 36.2208 66.9078V67.5238H29.9268C28.1183 67.5238 26.6858 67.7052 25.6405 68.0737C24.5896 68.4421 23.7766 69.0361 23.2014 69.85H22.582V69.8554ZM15.121 65.995C16.0668 65.995 17.0236 65.698 17.9915 65.1041C18.9594 64.5102 19.8332 63.7238 20.6131 62.7449C21.3929 61.766 21.9681 60.7212 22.3387 59.6158V44.6468C22.134 42.1941 21.5256 40.2309 20.519 38.7571C19.5124 37.2833 18.2072 36.5464 16.6033 36.5464C14.4629 36.5464 12.7981 37.8992 11.6035 40.5938C10.4531 43.294 9.87789 47.281 9.87789 52.5548C9.87236 61.5131 11.6201 65.995 15.121 65.995Z" fill="#AEBFE7"/>
<path d="M35.5404 67.5293V66.9133H35.6013C37.0835 66.9133 38.2726 66.4624 39.1796 65.566C40.0867 64.6641 40.5347 63.4818 40.5347 62.008V41.8862C40.5347 40.3299 40.2139 39.1255 39.5778 38.2676C38.9418 37.4098 37.5923 36.9808 35.5349 36.9808V36.3649H41.6409C43.82 36.3649 45.4681 36.1504 46.5742 35.7215C47.6859 35.2925 48.4657 34.7316 48.9193 34.0332H49.229L49.2899 44.0969C49.8263 42.8705 50.5121 41.5837 51.3583 40.2309C52.199 38.8836 53.272 37.7452 54.5662 36.8268C55.8604 35.9085 57.4145 35.4465 59.223 35.4465C59.8425 35.4465 60.4951 35.507 61.1975 35.628C61.8944 35.749 62.6355 35.9744 63.4208 36.3044L61.015 43.4809C59.5328 42.6616 58.2496 42.0896 57.1601 41.7652C56.0705 41.4407 55.1137 41.2757 54.2897 41.2757C52.8904 41.2757 51.8506 41.7047 51.1759 42.5626C50.4956 43.4205 49.9093 44.4433 49.417 45.6312V62.0135C49.417 63.4873 49.8705 64.6751 50.7721 65.5715C51.6791 66.4734 52.8683 66.9188 54.3505 66.9188H54.4113V67.5348H35.5404V67.5293Z" fill="#AEBFE7"/>
<path d="M77.5577 68.2606C74.7204 68.2606 72.1984 67.5622 69.9971 66.1764C67.7959 64.7851 66.0814 62.8548 64.8425 60.3802C63.6092 57.9055 62.9897 55.0734 62.9897 51.8838C62.9897 48.6117 63.67 45.7466 65.025 43.2939C66.38 40.8413 68.2439 38.9275 70.611 37.5582C72.9782 36.1889 75.6606 35.5015 78.6638 35.5015C81.1748 35.5015 83.4037 35.9909 85.356 36.9753C87.3084 37.9541 88.8736 39.3345 90.0461 41.1162C91.2186 42.8925 91.8878 44.9492 92.0537 47.2809L92.1146 48.1993H71.3854V48.5072C71.3854 52.8407 72.3532 56.3107 74.2835 58.9064C76.2137 61.502 78.8076 62.7998 82.0597 62.7998C84.0342 62.7998 85.9146 62.3214 87.7066 61.359C89.493 60.3967 90.9476 59.0988 92.0537 57.4655L92.6068 57.647C91.9044 59.7313 90.8204 61.5735 89.3382 63.1683C87.8559 64.7631 86.1082 66.0114 84.095 66.9133C82.0818 67.8097 79.9027 68.2606 77.5577 68.2606ZM71.4517 47.2809H83.9789C83.9789 44.0528 83.4535 41.4352 82.4026 39.4279C81.3518 37.4262 79.8806 36.4198 77.9891 36.4198C76.1805 36.4198 74.6762 37.3987 73.4871 39.362C72.2924 41.3307 71.6121 43.9703 71.4517 47.2809Z" fill="#AEBFE7"/>
<path d="M121.837 59.1373H121.859V46.302C121.859 42.9474 120.758 40.3023 118.557 38.3555C116.356 36.4143 113.507 35.4409 110.012 35.4409C107.954 35.4409 105.991 35.7874 104.122 36.4858C102.247 37.1787 100.593 38.1631 99.155 39.4279C97.717 40.6982 96.644 42.1665 95.9471 43.8438L102.612 47.6493C102.982 44.0913 103.712 41.3086 104.802 39.3069C105.891 37.3052 107.219 36.2823 108.778 36.2383C110.095 36.2383 111.123 36.9257 111.865 38.295C112.606 39.6644 112.976 41.5176 112.976 43.8493V48.4522L107.235 50.5364C104.52 51.5153 102.341 52.4502 100.698 53.33C99.0498 54.2099 97.7557 55.0568 96.8099 55.8762C95.9029 56.6956 95.2889 57.5205 94.9571 58.3619C94.6252 59.1978 94.4648 60.0886 94.4648 61.029C94.4648 63.2397 95.2281 65.016 96.749 66.3688C98.27 67.7161 100.289 68.3925 102.794 68.3925C104.603 68.3925 106.262 67.9306 107.761 67.0122C109.26 66.0938 111.018 64.609 113.037 62.5633C113.325 64.3231 114.033 65.7309 115.166 66.7978C116.3 67.8591 117.644 68.3925 119.209 68.3925C120.072 68.3925 120.946 68.2111 121.837 67.8866V59.1373ZM112.91 61.6999C111.842 62.7228 110.886 63.4597 110.039 63.9106C109.193 64.3616 108.319 64.587 107.418 64.587C106.057 64.587 104.94 64.0261 104.055 62.8988C103.17 61.7769 102.728 60.3306 102.728 58.5708C102.728 57.306 102.944 56.1787 103.375 55.1943C103.806 54.2154 104.581 53.3245 105.687 52.5271C106.793 51.7298 108.402 50.9434 110.499 50.1625L112.965 49.2441L112.91 61.6999Z" fill="#AEBFE7"/>
<path d="M166.851 66.8968C165.369 66.8968 164.174 66.4459 163.273 65.5495C162.366 64.6476 161.918 63.4653 161.918 61.9915V45.3067C161.918 42.3591 161.083 39.9889 159.418 38.1906C157.753 36.3924 155.541 35.4905 152.786 35.4905C150.275 35.4905 147.941 36.1449 145.784 37.4537C143.622 38.7625 141.968 40.5223 140.818 42.7275C140.364 40.5168 139.358 38.7625 137.793 37.4537C136.227 36.1449 134.275 35.4905 131.93 35.4905C129.502 35.4905 127.201 36.1449 125.022 37.4537C123.136 38.5811 121.676 40.0219 120.62 41.7596V43.3874C121.571 41.8201 122.649 40.5333 123.883 39.5709C125.26 38.4876 126.587 37.9432 127.865 37.9432C129.181 37.9432 130.238 38.5591 131.04 39.7854C131.841 41.0117 132.245 42.6505 132.245 44.6963V61.997C132.245 63.4708 131.792 64.6586 130.89 65.555C129.983 66.4569 128.794 66.9023 127.312 66.9023H127.251V67.5182H146.067V66.9023H146.006C144.523 66.9023 143.329 66.4514 142.427 65.555C141.526 64.6586 141.072 63.4708 141.072 61.997V44.3278C141.072 44.2068 141.05 44.1023 141.011 44.0198C142.04 42.2216 143.251 40.7588 144.651 39.6314C146.05 38.5096 147.388 37.9432 148.661 37.9432C149.977 37.9432 151.044 38.5591 151.868 39.7854C152.692 41.0117 153.102 42.6505 153.102 44.6963V61.997C153.102 63.4708 152.648 64.6586 151.747 65.555C150.84 66.4569 149.65 66.9023 148.168 66.9023H148.107V67.5182H166.928V66.9023H166.851V66.8968Z" fill="#AEBFE7"/>
<path d="M199.289 67.5292V66.9133C200.771 66.9133 201.971 66.4623 202.9 65.566C203.824 64.6641 204.289 63.4817 204.289 62.0079V37.4647H199.046L199.665 36.3593H204.294V34.946C204.294 31.8774 204.903 29.1993 206.114 26.9116C207.325 24.6239 209.023 22.8421 211.202 21.5773C213.381 20.3125 215.953 19.6746 218.918 19.6746C220.848 19.6746 222.678 19.9385 224.41 20.472C226.135 21.0054 227.629 21.7478 228.884 22.7102C230.139 23.6725 231.013 24.8054 231.506 26.1142L224.1 30.2882C224.056 27.3405 223.547 24.9704 222.557 23.1721C221.567 21.3738 220.273 20.472 218.669 20.472C216.982 20.472 215.643 21.4838 214.659 23.5076C213.674 25.5313 213.177 28.2644 213.177 31.696V36.3593H225.704C227.678 36.3593 229.21 36.1779 230.3 35.8094C231.389 35.441 232.18 34.847 232.672 34.0332H233.292V62.0079C233.292 63.4817 233.746 64.6696 234.653 65.566C235.554 66.4678 236.749 66.9133 238.231 66.9133H238.292V67.5292H199.289ZM218.171 66.9133H219.404C220.925 66.9133 222.142 66.4623 223.044 65.566C223.951 64.6641 224.399 63.4817 224.399 62.0079V42.3151C224.399 40.7588 224.111 39.5654 223.536 38.724C222.961 37.8881 221.993 37.4647 220.638 37.4647H213.171V62.0024C213.171 63.4322 213.636 64.6091 214.559 65.533C215.483 66.4513 216.689 66.9133 218.171 66.9133Z" fill="#AEBFE7"/>
<path d="M249.757 68.3872C247.617 68.3872 245.869 67.7107 244.514 66.3634C243.153 65.0106 242.478 63.2563 242.478 61.0896V37.4648H237.235V36.6674C240.073 36.4639 242.611 35.562 244.857 33.9672C247.097 32.3724 248.938 30.2277 250.376 27.5276H251.361V36.3594H259.569L258.949 37.4648H251.361V59.7368C251.361 63.0089 252.473 64.6422 254.69 64.6422C255.432 64.6422 256.283 64.4167 257.251 63.9657C258.219 63.5148 259.132 62.9209 260 62.184V62.7999C258.639 64.5157 257.035 65.8795 255.188 66.8804C253.335 67.8867 251.527 68.3872 249.757 68.3872Z" fill="#AEBFE7"/>
</svg>
