<svg width="99" height="35" viewBox="0 0 99 35" fill="none" xmlns="http://www.w3.org/2000/svg">
<path d="M45.6167 5.72162C46.6338 1.47205 52.5936 -1.26369 56.4538 0.589691C60.314 2.44307 61.7439 8.19135 59.221 11.7186C64.0289 10.6373 69.1758 15.3367 68.6914 20.367C68.207 25.3973 62.2662 28.9721 57.7574 26.9479C58.4208 28.6996 57.7595 30.7714 56.4875 32.1209C55.2155 33.4704 53.4381 34.2013 51.6565 34.6274C49.2052 35.2135 46.4443 35.2351 44.3805 33.7558C42.3167 32.2788 41.4617 28.918 43.1843 27.0365C42.0745 29.1559 38.884 29.3722 37.1003 27.8129C35.3186 26.2515 34.8469 23.5352 35.3439 21.1845C35.8409 18.8337 37.1424 16.7575 38.4397 14.7571C35.982 15.7389 33.0105 13.6152 32.661 10.9314C32.3093 8.24758 34.2215 5.58321 36.7044 4.67491C39.1894 3.76228 43.4054 4.24671 45.6167 5.72162Z" fill="#FCBEDD"/>
<path d="M8.59852 27.4714L8.57536 24.0458C8.2005 24.8827 7.63611 25.5704 6.88429 26.1089C6.13247 26.6474 5.3259 26.9178 4.46457 26.9178C3.61799 26.9178 2.85986 26.6453 2.18596 26.0981C1.51206 25.551 0.979268 24.7984 0.587564 23.8425C0.19586 22.8866 0 21.8031 0 20.5985C0 19.2469 0.246396 18.0726 0.739185 17.0756C1.23197 16.0786 1.91851 15.3109 2.79458 14.7724C3.67065 14.2339 4.6815 13.9636 5.82502 13.9636C6.46733 13.9636 6.9917 14.0631 7.39815 14.2642C7.80459 14.4653 8.17313 14.807 8.50166 15.2893V10.6331C8.50166 10.0535 8.32476 9.58858 7.97307 9.2339C7.62137 8.87923 7.16227 8.7019 6.59788 8.7019V8.45968H8.99865C9.78206 8.45968 10.3759 8.37966 10.7845 8.21747C11.1909 8.05743 11.4815 7.83252 11.6542 7.54272H11.8901V24.3832C11.8901 24.9627 12.0628 25.4299 12.4061 25.7824C12.7514 26.1371 13.2126 26.3122 13.7918 26.3122V26.5544H11.3952C10.7066 26.5544 10.1611 26.6258 9.76311 26.7707C9.36298 26.9156 9.0534 27.1492 8.83439 27.4692H8.59852V27.4714ZM5.75762 25.9532C6.11773 25.9532 6.48207 25.8364 6.85061 25.6029C7.21915 25.3693 7.55189 25.0601 7.84882 24.6751C8.14576 24.2902 8.36478 23.8793 8.50587 23.4446V17.5579C8.42795 16.5933 8.19629 15.8213 7.81301 15.2417C7.42973 14.6621 6.93274 14.3723 6.32202 14.3723C5.50702 14.3723 4.87313 14.9043 4.41825 15.964C3.98021 17.0259 3.7612 18.5938 3.7612 20.6678C3.75909 24.1907 4.42456 25.9532 5.75762 25.9532Z" fill="#242424"/>
<path d="M13.5327 26.5566V26.3144H13.5559C14.1203 26.3144 14.5731 26.1371 14.9184 25.7846C15.2638 25.4299 15.4344 24.9649 15.4344 24.3854V16.4723C15.4344 15.8602 15.3122 15.3866 15.0701 15.0493C14.8279 14.7119 14.314 14.5432 13.5306 14.5432V14.301H15.8556C16.6853 14.301 17.3129 14.2166 17.7341 14.048C18.1574 13.8793 18.4543 13.6587 18.627 13.384H18.7449L18.7681 17.3417C18.9724 16.8594 19.2335 16.3533 19.5557 15.8213C19.8758 15.2915 20.2844 14.8438 20.7772 14.4827C21.2699 14.1215 21.8617 13.9398 22.5503 13.9398C22.7862 13.9398 23.0347 13.9636 23.3022 14.0112C23.5675 14.0588 23.8497 14.1474 24.1487 14.2772L23.2327 17.0994C22.6683 16.7772 22.1797 16.5523 21.7648 16.4247C21.35 16.2971 20.9856 16.2322 20.6719 16.2322C20.1391 16.2322 19.7431 16.4009 19.4862 16.7383C19.2272 17.0756 19.0039 17.4779 18.8165 17.945V24.3875C18.8165 24.9671 18.9892 25.4342 19.3325 25.7867C19.6778 26.1414 20.1306 26.3166 20.695 26.3166H20.7182V26.5588H13.5327V26.5566Z" fill="#242424"/>
<path d="M29.5315 26.8442C28.4512 26.8442 27.4909 26.5696 26.6527 26.0246C25.8146 25.4775 25.1617 24.7184 24.69 23.7452C24.2204 22.772 23.9845 21.6582 23.9845 20.4039C23.9845 19.1171 24.2435 17.9904 24.7595 17.0259C25.2754 16.0613 25.9851 15.3087 26.8865 14.7703C27.7878 14.2318 28.8092 13.9614 29.9527 13.9614C30.9088 13.9614 31.7575 14.1539 32.5009 14.541C33.2443 14.926 33.8403 15.4688 34.2867 16.1695C34.7332 16.868 34.988 17.6768 35.0512 18.5938L35.0743 18.9549H27.1813V19.0761C27.1813 20.7802 27.5498 22.1448 28.2848 23.1656C29.0198 24.1864 30.0075 24.6967 31.2458 24.6967C31.9976 24.6967 32.7136 24.5086 33.3959 24.1301C34.0761 23.7517 34.63 23.2413 35.0512 22.599L35.2618 22.6704C34.9943 23.49 34.5816 24.2145 34.0172 24.8416C33.4528 25.4688 32.7873 25.9597 32.0207 26.3144C31.2542 26.6669 30.4245 26.8442 29.5315 26.8442ZM27.2066 18.5938H31.9765C31.9765 17.3243 31.7765 16.2949 31.3763 15.5055C30.9762 14.7183 30.416 14.3226 29.6958 14.3226C29.0072 14.3226 28.4344 14.7075 27.9816 15.4796C27.5267 16.2538 27.2677 17.2919 27.2066 18.5938Z" fill="#242424"/>
<path d="M46.3916 23.2565H46.4V18.2089C46.4 16.8897 45.9809 15.8495 45.1428 15.0839C44.3046 14.3205 43.2201 13.9377 41.8891 13.9377C41.1057 13.9377 40.3581 14.074 39.6463 14.3486C38.9324 14.6211 38.3027 15.0082 37.7552 15.5057C37.2076 16.0052 36.7991 16.5826 36.5337 17.2422L39.0714 18.7388C39.2125 17.3396 39.4905 16.2453 39.9053 15.4581C40.3202 14.6709 40.8256 14.2686 41.4195 14.2513C41.9207 14.2513 42.3124 14.5217 42.5946 15.0602C42.8768 15.5986 43.0179 16.3275 43.0179 17.2444V19.0545L40.8319 19.8742C39.7979 20.2591 38.9682 20.6268 38.3427 20.9728C37.7151 21.3188 37.2224 21.6519 36.8623 21.9741C36.5169 22.2963 36.2831 22.6207 36.1567 22.9516C36.0304 23.2803 35.9693 23.6307 35.9693 24.0005C35.9693 24.8699 36.2599 25.5684 36.8391 26.1004C37.4182 26.6302 38.1869 26.8962 39.1409 26.8962C39.8295 26.8962 40.4613 26.7146 41.032 26.3534C41.6027 25.9923 42.2724 25.4084 43.0411 24.6039C43.1506 25.2959 43.4201 25.8495 43.8518 26.2691C44.2836 26.6865 44.7953 26.8962 45.3913 26.8962C45.7198 26.8962 46.0526 26.8249 46.3916 26.6973V23.2565ZM42.9926 24.2643C42.5862 24.6666 42.2218 24.9564 41.8996 25.1337C41.5774 25.311 41.2447 25.3997 40.9014 25.3997C40.3834 25.3997 39.958 25.1791 39.621 24.7358C39.2841 24.2946 39.1156 23.7258 39.1156 23.0338C39.1156 22.5364 39.1977 22.093 39.362 21.7059C39.5263 21.321 39.8211 20.9706 40.2423 20.657C40.6635 20.3435 41.2763 20.0342 42.0744 19.7271L43.0137 19.366L42.9926 24.2643Z" fill="#242424"/>
<path d="M63.5318 26.3078C62.9674 26.3078 62.5125 26.1305 62.1693 25.778C61.8239 25.4233 61.6533 24.9583 61.6533 24.3788V17.8173C61.6533 16.6582 61.3353 15.7261 60.7014 15.0189C60.0675 14.3117 59.2252 13.957 58.1764 13.957C57.2203 13.957 56.3316 14.2144 55.5103 14.7291C54.6869 15.2438 54.0572 15.9358 53.6192 16.8031C53.4465 15.9337 53.0632 15.2438 52.4672 14.7291C51.8712 14.2144 51.1279 13.957 50.2349 13.957C49.3104 13.957 48.4343 14.2144 47.6046 14.7291C46.8865 15.1724 46.3305 15.739 45.9283 16.4224V17.0626C46.2905 16.4462 46.7012 15.9402 47.1708 15.5617C47.6952 15.1357 48.2006 14.9216 48.6871 14.9216C49.1883 14.9216 49.5905 15.1638 49.8959 15.646C50.2012 16.1283 50.355 16.7728 50.355 17.5773V24.3809C50.355 24.9605 50.1823 25.4276 49.839 25.7802C49.4937 26.1348 49.0409 26.31 48.4765 26.31H48.4533V26.5522H55.6177V26.31H55.5945C55.0301 26.31 54.5753 26.1327 54.232 25.7802C53.8887 25.4276 53.716 24.9605 53.716 24.3809V17.4324C53.716 17.3848 53.7076 17.3437 53.6929 17.3113C54.0846 16.6041 54.5458 16.0288 55.0786 15.5855C55.6114 15.1443 56.121 14.9216 56.6054 14.9216C57.1066 14.9216 57.513 15.1638 57.8268 15.646C58.1406 16.1283 58.2964 16.7728 58.2964 17.5773V24.3809C58.2964 24.9605 58.1238 25.4276 57.7805 25.7802C57.4351 26.1348 56.9824 26.31 56.418 26.31H56.3948V26.5522H63.5613V26.31H63.5318V26.3078Z" fill="#242424"/>
<path d="M75.8831 26.5565V26.3143C76.4475 26.3143 76.9045 26.137 77.2583 25.7845C77.61 25.4298 77.7869 24.9648 77.7869 24.3853V14.7334H75.7905L76.0264 14.2987H77.789V13.7429C77.789 12.5362 78.0207 11.483 78.4819 10.5833C78.9431 9.68368 79.5896 8.98298 80.4193 8.48558C81.249 7.98817 82.2283 7.7373 83.3571 7.7373C84.0921 7.7373 84.7892 7.84111 85.4483 8.05089C86.1054 8.26066 86.674 8.55262 87.152 8.93108C87.6301 9.30954 87.9628 9.75504 88.1502 10.2697L85.3304 11.9112C85.3135 10.752 85.1198 9.81992 84.7428 9.11274C84.3658 8.40556 83.873 8.05089 83.2623 8.05089C82.62 8.05089 82.1104 8.44881 81.7355 9.24466C81.3607 10.0405 81.1711 11.1153 81.1711 12.4648V14.2987H85.9411C86.6929 14.2987 87.2762 14.2274 87.6911 14.0825C88.106 13.9376 88.4071 13.704 88.5946 13.3839H88.8305V24.3853C88.8305 24.9648 89.0031 25.432 89.3485 25.7845C89.6918 26.1392 90.1466 26.3143 90.711 26.3143H90.7342V26.5565H75.8831ZM83.0728 26.3143H83.5424C84.1216 26.3143 84.5849 26.137 84.9281 25.7845C85.2735 25.4298 85.4441 24.9648 85.4441 24.3853V16.6409C85.4441 16.0288 85.3346 15.5596 85.1156 15.2287C84.8965 14.8999 84.528 14.7334 84.012 14.7334H81.169V24.3831C81.169 24.9454 81.3459 25.4082 81.6976 25.7715C82.0493 26.1327 82.5084 26.3143 83.0728 26.3143Z" fill="#242424"/>
<path d="M95.0998 26.8941C94.2848 26.8941 93.6193 26.628 93.1034 26.0982C92.5853 25.5662 92.3284 24.8763 92.3284 24.0242V14.7336H90.3319V14.42C91.4123 14.34 92.3789 13.9853 93.2339 13.3581C94.0868 12.731 94.7881 11.8875 95.3356 10.8257H95.7105V14.2989H98.8357L98.5998 14.7336H95.7105V23.4922C95.7105 24.779 96.1338 25.4213 96.9783 25.4213C97.2605 25.4213 97.5848 25.3326 97.9533 25.1553C98.3218 24.978 98.6694 24.7444 99 24.4546V24.6968C98.4819 25.3716 97.8712 25.9079 97.1678 26.3015C96.4623 26.6973 95.7737 26.8941 95.0998 26.8941Z" fill="#242424"/>
</svg>
